MSHX1
GROUPS 1
MATERIAL 1
TEXTURE 1
GEOM 170 192
-0.6412 0.6160 1.3251 0.2228 0.7750 0.5913 0.6250 0.5000
0.0302 -0.5761 1.4552 0.0868 -0.5140 0.8534 0.3750 0.5000
0.4469 0.2637 -0.4345 0.3890 0.8294 -0.4011 0.6250 0.2500
0.5785 -0.6676 -0.6291 0.9469 -0.3047 -0.1024 0.3750 0.2500
-2.3349 0.4937 0.2917 -0.8361 0.5479 -0.0272 0.6250 0.7500
-1.5093 -0.6944 0.3058 -0.3305 -0.8667 0.3736 0.3750 0.7500
-0.8708 0.3058 -0.9136 0.0791 0.8193 -0.5679 0.8750 0.2500
-0.5321 -1.0609 -1.5240 -0.2663 -0.6382 -0.7224 0.1250 0.2500
-1.3204 -0.8282 -0.1119 -0.3677 -0.9278 0.0626 0.1250 0.4375
-1.0961 -1.0015 -0.6754 -0.4777 -0.8732 -0.0970 0.1250 0.3750
-0.8589 -1.1074 -1.2963 -0.5027 -0.7426 -0.4426 0.1250 0.3125
-0.4150 -0.6736 1.1545 -0.2014 -0.8144 0.5443 0.3750 0.5625
-0.6973 -0.7061 0.8320 -0.2666 -0.8998 0.3454 0.3750 0.6250
-1.1185 -0.6837 0.5345 -0.2885 -0.8865 0.3617 0.3750 0.6875
-0.7683 0.3786 1.5024 0.1043 0.4509 0.8865 0.5625 0.5000
-0.6763 0.1179 1.5310 0.0972 0.0367 0.9946 0.5000 0.5000
-0.5364 -0.1614 1.4352 -0.0342 -0.3122 0.9494 0.4375 0.5000
-0.5672 -0.6404 -1.5213 -0.4050 -0.0659 -0.9119 0.4375 1.0000
-0.7340 -0.2828 -1.4483 -0.3448 0.2956 -0.8909 0.5000 1.0000
-0.8922 0.0728 -1.2838 -0.2196 0.5415 -0.8115 0.5625 0.0000
0.6114 0.0452 -0.6445 0.7490 0.4931 -0.4426 0.5625 0.2500
0.6317 -0.2033 -0.6297 0.9524 0.1061 -0.2859 0.5000 0.2500
0.6304 -0.4082 -0.6004 0.9789 0.0574 -0.1963 0.4375 0.2500
-2.4187 0.0755 0.2643 -0.9952 -0.0963 -0.0191 0.5625 0.7500
-2.2522 -0.3146 0.2301 -0.8360 -0.5486 0.0082 0.5000 0.7500
-1.8757 -0.5788 0.2525 -0.5412 -0.8192 0.1897 0.4375 0.7500
0.1868 0.2066 -0.6011 0.1910 0.8264 -0.5296 0.6250 0.1875
0.0271 0.2211 -0.6560 0.2281 0.8041 -0.5491 0.6250 0.1250
-0.2616 0.2489 -0.7537 0.2593 0.7914 -0.5535 0.8125 0.2500
-0.2242 0.6898 0.8559 0.3790 0.8800 0.2863 0.6250 0.4375
0.1600 0.5472 0.3239 0.4384 0.8987 0.0085 0.6250 0.3750
0.4147 0.4132 -0.0765 0.4514 0.8695 -0.2006 0.6250 0.3125
-0.1261 -1.1045 -1.4965 0.0782 -0.8222 -0.5638 0.1875 0.2500
0.1953 -1.0536 -1.3354 0.4667 -0.8269 -0.3138 0.2500 0.2500
0.5829 -0.8398 -1.0894 0.8501 -0.4978 -0.1717 0.3125 0.2500
-1.0917 0.4036 -0.7753 -0.0752 0.8350 -0.5451 0.8750 0.3125
-1.4165 0.5478 -0.4529 -0.2478 0.8309 -0.4982 0.6250 0.8750
-1.9780 0.5579 -0.0829 -0.5110 0.7219 -0.4666 0.6250 0.8125
-2.0234 0.5940 0.5960 -0.5624 0.7024 0.4363 0.6250 0.6875
-1.5720 0.5813 1.0143 -0.5558 0.6160 0.5582 0.6250 0.6250
-1.0944 0.7666 1.1477 -0.2132 0.8358 0.5059 0.6250 0.5625
0.7224 -0.6834 -0.0877 0.9268 -0.3459 -0.1459 0.3750 0.3125
0.7180 -0.7761 0.5020 0.8491 -0.5156 0.1148 0.3750 0.3750
0.7080 -0.5885 1.1302 0.7719 -0.3902 0.5019 0.3750 0.4375
-1.5037 -0.4543 0.5623 -0.3977 -0.7247 0.5627 0.4375 0.6875
-1.1180 -0.4842 0.9906 -0.4311 -0.7572 0.4907 0.4375 0.6250
-0.8783 -0.3438 1.3343 -0.3158 -0.6087 0.7278 0.4375 0.5625
-1.8531 -0.2509 0.6670 -0.5339 -0.5484 0.6436 0.5000 0.6875
-1.3538 -0.1214 1.1171 -0.5780 -0.5018 0.6435 0.5000 0.6250
-1.1134 0.0361 1.5019 -0.3754 -0.3136 0.8722 0.5000 0.5625
-2.1304 0.2247 0.6545 -0.7092 -0.0406 0.7039 0.5625 0.6875
-1.5363 0.1267 1.1209 -0.6565 -0.0703 0.7511 0.5625 0.6250
-1.1576 0.3614 1.5079 -0.3788 0.2433 0.8929 0.5625 0.5625
0.5324 -0.2900 1.3737 0.6174 0.1168 0.7779 0.4375 0.4375
0.7680 -0.4146 0.5976 0.9842 0.1621 0.0717 0.4375 0.3750
0.6652 -0.3431 -0.0560 0.9934 0.0309 -0.1103 0.4375 0.3125
0.3758 -0.0354 1.3590 0.5546 0.3088 0.7727 0.5000 0.4375
0.7411 -0.2283 0.5468 0.9592 0.2609 0.1093 0.5000 0.3750
0.6548 -0.1559 -0.1287 0.9967 0.0092 -0.0806 0.5000 0.3125
-0.0004 0.3356 1.1863 0.4885 0.6234 0.6105 0.5625 0.4375
0.6773 0.2070 0.4746 0.8161 0.5505 0.1757 0.5625 0.3750
0.6956 0.1637 -0.1055 0.8933 0.4351 -0.1128 0.5625 0.3125
-0.8950 -0.8407 0.2309 -0.1618 -0.9567 0.2420 0.1875 0.4375
-0.6058 -1.0025 -0.3110 -0.0694 -0.9837 0.1661 0.1875 0.3750
-0.3438 -1.0960 -0.9616 0.0241 -0.9972 0.0705 0.1875 0.3125
-0.3295 -0.8360 0.5892 -0.1244 -0.9688 0.2142 0.2500 0.4375
0.0596 -0.9516 0.0791 0.0863 -0.9926 0.0856 0.2500 0.3750
0.1121 -1.0085 -0.6897 0.2437 -0.9658 0.0884 0.2500 0.3125
0.2007 -0.8362 0.9792 0.0778 -0.9378 0.3383 0.3125 0.4375
0.6146 -0.9063 0.3900 0.4094 -0.9116 0.0373 0.3125 0.3750
0.4749 -0.7640 -0.5283 0.5382 -0.8428 0.0069 0.3125 0.3125
-0.9788 -0.6262 -1.2433 -0.7150 -0.1353 -0.6859 0.4375 0.9375
-1.3876 -0.5693 -0.7754 -0.7777 -0.3360 -0.5313 0.4375 0.8750
-1.7227 -0.6191 -0.2226 -0.6835 -0.6463 -0.3394 0.4375 0.8125
-1.0745 -0.2609 -1.1051 -0.6930 -0.0319 -0.7202 0.5000 0.9375
-1.6063 0.0480 -0.5878 -0.7568 -0.0963 -0.6465 0.5000 0.8750
-1.9595 -0.2075 -0.1428 -0.7514 -0.2784 -0.5982 0.5000 0.8125
-1.2024 0.1066 -1.0721 -0.5710 0.3410 -0.7468 0.5625 0.9375
-1.5833 0.3937 -0.6104 -0.6040 0.3847 -0.6980 0.5625 0.8750
-2.0517 0.2086 -0.1028 -0.7263 0.1052 -0.6792 0.5625 0.8125
0.4696 -0.6097 -1.1694 0.9134 0.0133 -0.4069 0.4375 0.1875
0.2557 -0.7972 -1.5933 0.5765 -0.2439 -0.7798 0.4375 0.1250
-0.0464 -0.7802 -1.6430 0.0274 -0.2500 -0.9679 0.4375 0.0625
0.4327 -0.3154 -1.0860 0.7228 0.4406 -0.5324 0.5000 0.1875
0.2167 -0.5104 -1.6382 0.4847 0.3836 -0.7861 0.5000 0.1250
-0.1572 -0.4499 -1.6595 0.0227 0.4136 -0.9102 0.5000 0.0625
0.3542 -0.0649 -0.9337 0.3884 0.6677 -0.6351 0.5625 0.1875
0.0846 -0.2841 -1.1798 0.2398 0.8018 -0.5473 0.5625 0.1250
-0.3028 -0.1063 -1.1686 0.2506 0.7517 -0.6100 0.5625 0.0625
-1.0942 0.9144 0.5641 -0.0976 0.9952 -0.0016 0.6875 0.4375
-0.5876 0.7930 0.2000 0.1754 0.9595 -0.2203 0.6875 0.3750
-0.0117 0.4312 -0.2486 0.2352 0.8993 -0.3687 0.6875 0.3125
-1.4717 0.7473 0.4994 -0.2485 0.9685 0.0165 0.7500 0.4375
-0.9307 0.7397 -0.0386 0.0028 0.9453 -0.3263 0.7500 0.3750
-0.3533 0.4667 -0.4095 0.2133 0.8784 -0.4278 0.7500 0.3125
-1.8446 0.6661 0.1646 -0.2387 0.9658 -0.1013 0.8125 0.4375
-1.1969 0.6294 -0.3186 -0.0285 0.9401 -0.3397 0.8125 0.3750
-0.7062 0.4491 -0.6134 0.1445 0.8778 -0.4567 0.8125 0.3125
-0.2616 0.2489 -0.7537 0.2593 0.7914 -0.5535 0.6250 0.0625
-0.8708 0.3058 -0.9136 0.0791 0.8193 -0.5679 0.6250 0.0000
-0.8708 0.3058 -0.9136 0.0791 0.8193 -0.5679 0.6250 0.0000
-1.5093 -0.6944 0.3058 -0.3305 -0.8667 0.3736 0.1250 0.5000
-1.1185 -0.6837 0.5345 -0.2885 -0.8865 0.3617 0.1875 0.5000
-1.5093 -0.6944 0.3058 -0.3305 -0.8667 0.3736 0.1250 0.5000
-1.1185 -0.6837 0.5345 -0.2885 -0.8865 0.3617 0.1875 0.5000
-0.6973 -0.7061 0.8320 -0.2666 -0.8998 0.3454 0.2500 0.5000
-1.1185 -0.6837 0.5345 -0.2885 -0.8865 0.3617 0.1875 0.5000
-0.6973 -0.7061 0.8320 -0.2666 -0.8998 0.3454 0.2500 0.5000
-0.4150 -0.6736 1.1545 -0.2014 -0.8144 0.5443 0.3125 0.5000
-0.6973 -0.7061 0.8320 -0.2666 -0.8998 0.3454 0.2500 0.5000
-0.4150 -0.6736 1.1545 -0.2014 -0.8144 0.5443 0.3125 0.5000
-0.4150 -0.6736 1.1545 -0.2014 -0.8144 0.5443 0.3125 0.5000
-1.3204 -0.8282 -0.1119 -0.3677 -0.9278 0.0626 0.3750 0.8125
-1.3204 -0.8282 -0.1119 -0.3677 -0.9278 0.0626 0.3750 0.8125
-0.5321 -1.0609 -1.5240 -0.2663 -0.6382 -0.7224 0.3750 1.0000
-0.5321 -1.0609 -1.5240 -0.2663 -0.6382 -0.7224 0.3750 1.0000
-0.8589 -1.1074 -1.2963 -0.5027 -0.7426 -0.4426 0.3750 0.9375
-0.8589 -1.1074 -1.2963 -0.5027 -0.7426 -0.4426 0.3750 0.9375
-0.8589 -1.1074 -1.2963 -0.5027 -0.7426 -0.4426 0.3750 0.9375
-1.0961 -1.0015 -0.6754 -0.4777 -0.8732 -0.0970 0.3750 0.8750
-1.0961 -1.0015 -0.6754 -0.4777 -0.8732 -0.0970 0.3750 0.8750
-1.0961 -1.0015 -0.6754 -0.4777 -0.8732 -0.0970 0.3750 0.8750
-1.3204 -0.8282 -0.1119 -0.3677 -0.9278 0.0626 0.3750 0.8125
-0.8922 0.0728 -1.2838 -0.2196 0.5415 -0.8115 0.5625 1.0000
-0.8922 0.0728 -1.2838 -0.2196 0.5415 -0.8115 0.5625 1.0000
-0.8708 0.3058 -0.9136 0.0791 0.8193 -0.5679 0.6250 1.0000
-1.0917 0.4036 -0.7753 -0.0752 0.8350 -0.5451 0.6250 0.9375
-0.8922 0.0728 -1.2838 -0.2196 0.5415 -0.8115 0.5625 1.0000
-1.0917 0.4036 -0.7753 -0.0752 0.8350 -0.5451 0.6250 0.9375
-1.0917 0.4036 -0.7753 -0.0752 0.8350 -0.5451 0.6250 0.9375
-0.1261 -1.1045 -1.4965 0.0782 -0.8222 -0.5638 0.3750 0.0625
-0.5672 -0.6404 -1.5213 -0.4050 -0.0659 -0.9119 0.4375 0.0000
-0.1261 -1.1045 -1.4965 0.0782 -0.8222 -0.5638 0.3750 0.0625
-0.5672 -0.6404 -1.5213 -0.4050 -0.0659 -0.9119 0.4375 0.0000
-0.5321 -1.0609 -1.5240 -0.2663 -0.6382 -0.7224 0.3750 0.0000
-0.7340 -0.2828 -1.4483 -0.3448 0.2956 -0.8909 0.5000 0.0000
-0.7340 -0.2828 -1.4483 -0.3448 0.2956 -0.8909 0.5000 0.0000
-0.5672 -0.6404 -1.5213 -0.4050 -0.0659 -0.9119 0.4375 0.0000
-0.7340 -0.2828 -1.4483 -0.3448 0.2956 -0.8909 0.5000 0.0000
0.5829 -0.8398 -1.0894 0.8501 -0.4978 -0.1717 0.3750 0.1875
0.5829 -0.8398 -1.0894 0.8501 -0.4978 -0.1717 0.3750 0.1875
0.5829 -0.8398 -1.0894 0.8501 -0.4978 -0.1717 0.3750 0.1875
0.1953 -1.0536 -1.3354 0.4667 -0.8269 -0.3138 0.3750 0.1250
0.1953 -1.0536 -1.3354 0.4667 -0.8269 -0.3138 0.3750 0.1250
0.1953 -1.0536 -1.3354 0.4667 -0.8269 -0.3138 0.3750 0.1250
-0.1261 -1.1045 -1.4965 0.0782 -0.8222 -0.5638 0.3750 0.0625
-0.2616 0.2489 -0.7537 0.2593 0.7914 -0.5535 0.6250 0.0625
-0.2616 0.2489 -0.7537 0.2593 0.7914 -0.5535 0.6250 0.0625
0.1868 0.2066 -0.6011 0.1910 0.8264 -0.5296 0.6875 0.2500
0.1868 0.2066 -0.6011 0.1910 0.8264 -0.5296 0.6875 0.2500
0.0271 0.2211 -0.6560 0.2281 0.8041 -0.5491 0.7500 0.2500
0.0271 0.2211 -0.6560 0.2281 0.8041 -0.5491 0.7500 0.2500
0.1868 0.2066 -0.6011 0.1910 0.8264 -0.5296 0.6875 0.2500
0.0271 0.2211 -0.6560 0.2281 0.8041 -0.5491 0.7500 0.2500
-1.0944 0.7666 1.1477 -0.2132 0.8358 0.5059 0.6875 0.5000
-1.0944 0.7666 1.1477 -0.2132 0.8358 0.5059 0.6875 0.5000
-1.5720 0.5813 1.0143 -0.5558 0.6160 0.5582 0.7500 0.5000
-1.0944 0.7666 1.1477 -0.2132 0.8358 0.5059 0.6875 0.5000
-1.5720 0.5813 1.0143 -0.5558 0.6160 0.5582 0.7500 0.5000
-2.0234 0.5940 0.5960 -0.5624 0.7024 0.4363 0.8125 0.5000
-1.5720 0.5813 1.0143 -0.5558 0.6160 0.5582 0.7500 0.5000
-2.0234 0.5940 0.5960 -0.5624 0.7024 0.4363 0.8125 0.5000
-2.3349 0.4937 0.2917 -0.8361 0.5479 -0.0272 0.8750 0.5000
-1.9780 0.5579 -0.0829 -0.5110 0.7219 -0.4666 0.8750 0.4375
-2.0234 0.5940 0.5960 -0.5624 0.7024 0.4363 0.8125 0.5000
-1.9780 0.5579 -0.0829 -0.5110 0.7219 -0.4666 0.8750 0.4375
-1.9780 0.5579 -0.0829 -0.5110 0.7219 -0.4666 0.8750 0.4375
-1.4165 0.5478 -0.4529 -0.2478 0.8309 -0.4982 0.8750 0.3750
-1.4165 0.5478 -0.4529 -0.2478 0.8309 -0.4982 0.8750 0.3750
-1.4165 0.5478 -0.4529 -0.2478 0.8309 -0.4982 0.8750 0.3750
97 6 35
97 28 6
88 99 98
88 19 100
79 4 37
79 23 4
70 3 41
70 34 3
61 2 31
61 20 2
52 0 40
52 14 0
11 16 46
11 1 16
46 15 49
46 16 15
49 14 52
49 15 14
5 44 25
5 13 44
13 45 44
13 12 45
12 46 45
12 11 46
25 47 24
25 44 47
44 48 47
44 45 48
45 49 48
45 46 49
24 50 23
24 47 50
47 51 50
47 48 51
48 52 51
48 49 52
23 38 4
23 50 38
50 39 38
50 51 39
51 40 39
51 52 40
41 22 55
41 3 22
55 21 58
55 22 21
58 20 61
58 21 20
1 53 16
1 43 53
43 54 53
43 42 54
42 55 54
42 41 55
16 56 15
16 53 56
53 57 56
53 54 57
54 58 57
54 55 58
15 59 14
15 56 59
56 60 59
56 57 60
57 61 60
57 58 61
14 29 0
14 59 29
59 30 29
59 60 30
60 31 30
60 61 31
10 32 64
10 7 32
64 33 67
64 32 33
67 34 70
67 33 34
101 62 102
103 8 62
8 63 62
8 9 63
9 64 63
9 10 64
104 65 105
106 62 65
62 66 65
62 63 66
63 67 66
63 64 67
107 68 108
109 65 68
65 69 68
65 66 69
66 70 69
66 67 70
110 43 1
111 68 43
68 42 43
68 69 42
69 41 42
69 70 41
112 25 73
113 5 25
73 24 76
73 25 24
76 23 79
76 24 23
114 71 17
115 116 71
117 72 71
118 119 72
120 73 72
121 122 73
17 74 18
17 71 74
71 75 74
71 72 75
72 76 75
72 73 76
18 77 123
18 74 77
74 78 77
74 75 78
75 79 78
75 76 79
124 126 125
127 77 128
77 36 129
77 78 36
78 37 36
78 79 37
130 131 82
132 134 133
82 135 85
82 137 136
85 19 88
85 138 19
3 80 22
3 139 80
140 81 80
141 142 81
143 82 81
144 145 82
22 83 21
22 80 83
80 84 83
80 81 84
81 85 84
81 82 85
21 86 20
21 83 86
83 87 86
83 84 87
84 88 87
84 85 88
20 26 2
20 86 26
86 27 26
86 87 27
87 146 27
87 88 147
31 148 91
31 2 149
91 150 94
91 152 151
94 28 97
94 153 28
0 89 154
0 29 89
29 90 89
29 30 90
30 91 90
30 31 91
155 92 156
157 89 92
89 93 92
89 90 93
90 94 93
90 91 94
158 95 159
160 92 95
92 96 95
92 93 96
93 97 96
93 94 97
161 163 162
164 95 165
95 167 166
95 96 168
96 35 169
96 97 35
MATERIALS 1
Material.001
MATERIAL Material.001
1.0 1.0 1.0 1.0
1.0 1.0 1.0 1.0
0.0 0.0 0.0 1.0 20.0
0.0 0.0 0.0 1.0
TEXTURES 1
LunarScatter_C.dds
