MSHX1
GROUPS 1
MATERIAL 1
TEXTURE 1
GEOM 170 192
-0.3112 0.7472 1.6133 0.2777 0.8607 0.4267 0.6250 0.5000
0.3139 -0.6155 1.6692 0.1040 -0.6351 0.7654 0.3750 0.5000
0.6440 0.3720 -0.5322 0.1898 0.6779 -0.7103 0.6250 0.2500
1.2710 -0.8274 -0.6561 0.6977 -0.5606 -0.4461 0.3750 0.2500
-2.3471 0.5234 0.2855 -0.7937 0.6082 -0.0059 0.6250 0.7500
-1.4831 -0.7604 0.3323 -0.3384 -0.8392 0.4258 0.3750 0.7500
-0.7536 0.4611 -1.0362 0.3514 0.8371 -0.4192 0.8750 0.2500
-0.4644 -1.1149 -1.6397 -0.1470 -0.7463 -0.6492 0.1250 0.2500
-1.2870 -0.8811 -0.0965 -0.3453 -0.9330 0.1016 0.1250 0.4375
-1.0545 -1.0722 -0.6794 -0.4431 -0.8958 -0.0329 0.1250 0.3750
-0.7216 -1.1457 -1.2589 -0.4067 -0.8781 -0.2522 0.1250 0.3125
-0.1947 -0.7512 1.3387 -0.2276 -0.8320 0.5060 0.3750 0.5625
-0.5964 -0.8171 0.9322 -0.3255 -0.9008 0.2875 0.3750 0.6250
-1.0466 -0.6865 0.5574 -0.3000 -0.8946 0.3313 0.3750 0.6875
-0.2256 0.4617 1.9904 0.1189 0.5795 0.8063 0.5625 0.5000
-0.0449 0.1525 2.0387 0.1899 0.1144 0.9751 0.5000 0.5000
0.0588 -0.1724 1.8830 0.0680 -0.4245 0.9029 0.4375 0.5000
-0.4870 -0.7172 -1.7875 -0.0844 -0.2359 -0.9681 0.4375 1.0000
-0.6604 -0.2684 -1.7728 -0.0090 0.3487 -0.9372 0.5000 1.0000
-0.7183 0.1355 -1.3730 0.2066 0.7549 -0.6224 0.5625 0.0000
0.8580 0.0549 -0.6797 0.1471 0.6732 -0.7247 0.5625 0.2500
1.1233 -0.1670 -0.7893 0.4233 0.5198 -0.7420 0.5000 0.2500
1.2472 -0.4575 -0.7392 0.7290 0.0653 -0.6814 0.4375 0.2500
-2.4478 0.0781 0.2374 -0.9931 -0.1170 -0.0130 0.5625 0.7500
-2.2184 -0.3226 0.2397 -0.7836 -0.6174 0.0683 0.5000 0.7500
-1.8308 -0.5848 0.2677 -0.5466 -0.8072 0.2227 0.4375 0.7500
0.2828 0.0515 -0.5009 0.0366 0.5663 -0.8234 0.6250 0.1875
0.0758 -0.0087 -0.5002 0.3026 0.6506 -0.6965 0.6250 0.1250
-0.2146 0.0730 -0.6575 0.4691 0.6957 -0.5440 0.8125 0.2500
-0.1209 0.6570 0.8889 0.5195 0.8185 0.2455 0.6250 0.4375
0.1341 0.7791 0.1972 0.5196 0.8537 0.0366 0.6250 0.3750
0.5778 0.5436 -0.1456 0.4775 0.8570 -0.1938 0.6250 0.3125
-0.0433 -1.1413 -1.4546 0.1629 -0.8649 -0.4748 0.1875 0.2500
0.2913 -1.1123 -1.3067 0.3914 -0.8310 -0.3953 0.2500 0.2500
0.7190 -0.9872 -1.0105 0.5429 -0.7097 -0.4490 0.3125 0.2500
-1.0207 0.5821 -0.8759 -0.0380 0.9424 -0.3324 0.8750 0.3125
-1.3947 0.6769 -0.4992 -0.2065 0.9571 -0.2030 0.6250 0.8750
-1.9210 0.5635 -0.0662 -0.3536 0.8480 -0.3948 0.6250 0.8125
-2.0649 0.7141 0.6016 -0.6767 0.6061 0.4181 0.6250 0.6875
-1.6252 0.8949 0.9855 -0.6223 0.5429 0.5639 0.6250 0.6250
-1.0130 0.8838 1.2743 -0.2692 0.7623 0.5885 0.6250 0.5625
1.4311 -0.8557 0.0036 0.7830 -0.6154 -0.0901 0.3750 0.3125
1.3558 -0.8920 0.6599 0.6905 -0.6587 0.2990 0.3750 0.3750
0.8924 -0.7704 1.2914 0.4453 -0.6452 0.6208 0.3750 0.4375
-1.4440 -0.4261 0.5537 -0.4248 -0.6359 0.6443 0.4375 0.6875
-1.0037 -0.4710 1.0390 -0.5132 -0.6830 0.5198 0.4375 0.6250
-0.5827 -0.3190 1.5393 -0.4125 -0.6079 0.6784 0.4375 0.5625
-1.8139 -0.2384 0.6503 -0.5013 -0.4385 0.7460 0.5000 0.6875
-1.2463 -0.0826 1.1132 -0.6487 -0.3840 0.6571 0.5000 0.6250
-0.7922 0.0555 1.7735 -0.5234 -0.3404 0.7811 0.5000 0.5625
-2.0573 0.1758 0.6503 -0.6054 -0.1179 0.7872 0.5625 0.6875
-1.4767 0.4460 0.8319 -0.5981 -0.0557 0.7995 0.5625 0.6250
-0.9047 0.3824 1.7768 -0.5733 0.1872 0.7977 0.5625 0.5625
0.7769 -0.3247 1.5357 0.6104 -0.1266 0.7819 0.4375 0.4375
1.3790 -0.4338 0.8053 0.8954 -0.0522 0.4421 0.4375 0.3750
1.5379 -0.4072 0.0108 0.9970 -0.0285 -0.0725 0.4375 0.3125
0.7160 0.0110 1.5800 0.6296 0.4746 0.6151 0.5000 0.4375
1.3690 -0.0849 0.7383 0.7610 0.5558 0.3345 0.5000 0.3750
1.5242 -0.0393 -0.1034 0.8162 0.5568 -0.1544 0.5000 0.3125
0.2412 0.3000 1.3459 0.5602 0.7965 0.2275 0.5625 0.4375
0.7181 0.0520 0.5116 0.4574 0.8583 0.2326 0.5625 0.3750
1.1015 0.2035 -0.0509 0.4861 0.8739 -0.0001 0.5625 0.3125
-0.7926 -0.7472 0.2218 -0.1253 -0.9729 0.1945 0.1875 0.4375
-0.5137 -1.0087 -0.2922 -0.1040 -0.9709 0.2158 0.1875 0.3750
-0.2501 -1.1535 -0.9534 -0.0029 -0.9979 0.0652 0.1875 0.3125
-0.1861 -0.8905 0.6441 -0.1627 -0.9745 0.1543 0.2500 0.4375
0.2746 -1.0404 0.1381 -0.0650 -0.9912 0.1149 0.2500 0.3750
0.2693 -1.0958 -0.6417 0.0905 -0.9950 0.0427 0.2500 0.3125
0.3657 -0.8748 1.0413 -0.0229 -0.9575 0.2875 0.3125 0.4375
0.9413 -1.0601 0.4528 0.1358 -0.9850 0.1065 0.3125 0.3750
0.8797 -0.9712 -0.2917 0.2196 -0.9743 -0.0494 0.3125 0.3125
-0.8625 -0.7455 -1.5317 -0.6606 -0.4142 -0.6261 0.4375 0.9375
-1.3620 -0.6453 -0.7771 -0.7856 -0.4985 -0.3665 0.4375 0.8750
-1.6283 -0.6166 -0.1741 -0.6854 -0.6622 -0.3029 0.4375 0.8125
-1.1084 -0.2439 -1.6090 -0.6479 0.1154 -0.7529 0.5000 0.9375
-1.6080 -0.1051 -0.5672 -0.8040 -0.0858 -0.5884 0.5000 0.8750
-1.9523 -0.2378 -0.1572 -0.7163 -0.3683 -0.5927 0.5000 0.8125
-1.0969 0.2389 -1.2329 -0.4860 0.5705 -0.6620 0.5625 0.9375
-1.5072 0.3662 -0.5516 -0.6938 0.3403 -0.6346 0.5625 0.8750
-2.0830 0.1931 -0.1465 -0.6969 0.0970 -0.7106 0.5625 0.8125
0.6060 -0.6598 -1.1032 0.7129 0.1037 -0.6936 0.4375 0.1875
0.3520 -0.8265 -1.5929 0.5409 -0.2092 -0.8146 0.4375 0.1250
0.0488 -0.8051 -1.6156 0.1693 -0.2951 -0.9403 0.4375 0.0625
0.4598 -0.3781 -0.8613 0.6351 0.4173 -0.6500 0.5000 0.1875
0.3429 -0.5194 -1.6784 0.4303 0.4631 -0.7748 0.5000 0.1250
-0.0237 -0.4509 -1.6151 0.2696 0.5125 -0.8153 0.5000 0.0625
0.3901 -0.2492 -0.7041 0.1582 0.6718 -0.7237 0.5625 0.1875
0.4229 -0.3299 -1.1555 0.7032 0.6522 -0.2831 0.5625 0.1250
0.0777 -0.2589 -1.1092 0.3383 0.8520 -0.3997 0.5625 0.0625
-1.0933 1.2600 0.5141 -0.1273 0.9872 -0.0964 0.6875 0.4375
-0.5512 1.1963 0.0066 0.0883 0.9082 -0.4092 0.6875 0.3750
0.0374 0.5043 -0.3661 0.1287 0.5871 -0.7992 0.6875 0.3125
-1.5449 1.0350 0.4623 -0.4605 0.8297 -0.3155 0.7500 0.4375
-0.9014 0.6996 -0.0292 -0.2980 0.6433 -0.7053 0.7500 0.3750
-0.3005 0.4790 -0.4855 0.0570 0.5370 -0.8416 0.7500 0.3125
-1.7611 0.5150 0.2193 -0.1686 0.9482 -0.2692 0.8125 0.4375
-1.1365 0.4418 -0.2219 0.0025 0.9778 -0.2094 0.8125 0.3750
-0.6362 0.4170 -0.6211 0.3006 0.9124 -0.2778 0.8125 0.3125
-0.2146 0.0730 -0.6575 0.4691 0.6957 -0.5440 0.6250 0.0625
-0.7536 0.4611 -1.0362 0.3514 0.8371 -0.4192 0.6250 0.0000
-0.7536 0.4611 -1.0362 0.3514 0.8371 -0.4192 0.6250 0.0000
-1.4831 -0.7604 0.3323 -0.3384 -0.8392 0.4258 0.1250 0.5000
-1.0466 -0.6865 0.5574 -0.3000 -0.8946 0.3313 0.1875 0.5000
-1.4831 -0.7604 0.3323 -0.3384 -0.8392 0.4258 0.1250 0.5000
-1.0466 -0.6865 0.5574 -0.3000 -0.8946 0.3313 0.1875 0.5000
-0.5964 -0.8171 0.9322 -0.3255 -0.9008 0.2875 0.2500 0.5000
-1.0466 -0.6865 0.5574 -0.3000 -0.8946 0.3313 0.1875 0.5000
-0.5964 -0.8171 0.9322 -0.3255 -0.9008 0.2875 0.2500 0.5000
-0.1947 -0.7512 1.3387 -0.2276 -0.8320 0.5060 0.3125 0.5000
-0.5964 -0.8171 0.9322 -0.3255 -0.9008 0.2875 0.2500 0.5000
-0.1947 -0.7512 1.3387 -0.2276 -0.8320 0.5060 0.3125 0.5000
-0.1947 -0.7512 1.3387 -0.2276 -0.8320 0.5060 0.3125 0.5000
-1.2870 -0.8811 -0.0965 -0.3453 -0.9330 0.1016 0.3750 0.8125
-1.2870 -0.8811 -0.0965 -0.3453 -0.9330 0.1016 0.3750 0.8125
-0.4644 -1.1149 -1.6397 -0.1470 -0.7463 -0.6492 0.3750 1.0000
-0.4644 -1.1149 -1.6397 -0.1470 -0.7463 -0.6492 0.3750 1.0000
-0.7216 -1.1457 -1.2589 -0.4067 -0.8781 -0.2522 0.3750 0.9375
-0.7216 -1.1457 -1.2589 -0.4067 -0.8781 -0.2522 0.3750 0.9375
-0.7216 -1.1457 -1.2589 -0.4067 -0.8781 -0.2522 0.3750 0.9375
-1.0545 -1.0722 -0.6794 -0.4431 -0.8958 -0.0329 0.3750 0.8750
-1.0545 -1.0722 -0.6794 -0.4431 -0.8958 -0.0329 0.3750 0.8750
-1.0545 -1.0722 -0.6794 -0.4431 -0.8958 -0.0329 0.3750 0.8750
-1.2870 -0.8811 -0.0965 -0.3453 -0.9330 0.1016 0.3750 0.8125
-0.7183 0.1355 -1.3730 0.2066 0.7549 -0.6224 0.5625 1.0000
-0.7183 0.1355 -1.3730 0.2066 0.7549 -0.6224 0.5625 1.0000
-0.7536 0.4611 -1.0362 0.3514 0.8371 -0.4192 0.6250 1.0000
-1.0207 0.5821 -0.8759 -0.0380 0.9424 -0.3324 0.6250 0.9375
-0.7183 0.1355 -1.3730 0.2066 0.7549 -0.6224 0.5625 1.0000
-1.0207 0.5821 -0.8759 -0.0380 0.9424 -0.3324 0.6250 0.9375
-1.0207 0.5821 -0.8759 -0.0380 0.9424 -0.3324 0.6250 0.9375
-0.0433 -1.1413 -1.4546 0.1629 -0.8649 -0.4748 0.3750 0.0625
-0.4870 -0.7172 -1.7875 -0.0844 -0.2359 -0.9681 0.4375 0.0000
-0.0433 -1.1413 -1.4546 0.1629 -0.8649 -0.4748 0.3750 0.0625
-0.4870 -0.7172 -1.7875 -0.0844 -0.2359 -0.9681 0.4375 0.0000
-0.4644 -1.1149 -1.6397 -0.1470 -0.7463 -0.6492 0.3750 0.0000
-0.6604 -0.2684 -1.7728 -0.0090 0.3487 -0.9372 0.5000 0.0000
-0.6604 -0.2684 -1.7728 -0.0090 0.3487 -0.9372 0.5000 0.0000
-0.4870 -0.7172 -1.7875 -0.0844 -0.2359 -0.9681 0.4375 0.0000
-0.6604 -0.2684 -1.7728 -0.0090 0.3487 -0.9372 0.5000 0.0000
0.7190 -0.9872 -1.0105 0.5429 -0.7097 -0.4490 0.3750 0.1875
0.7190 -0.9872 -1.0105 0.5429 -0.7097 -0.4490 0.3750 0.1875
0.7190 -0.9872 -1.0105 0.5429 -0.7097 -0.4490 0.3750 0.1875
0.2913 -1.1123 -1.3067 0.3914 -0.8310 -0.3953 0.3750 0.1250
0.2913 -1.1123 -1.3067 0.3914 -0.8310 -0.3953 0.3750 0.1250
0.2913 -1.1123 -1.3067 0.3914 -0.8310 -0.3953 0.3750 0.1250
-0.0433 -1.1413 -1.4546 0.1629 -0.8649 -0.4748 0.3750 0.0625
-0.2146 0.0730 -0.6575 0.4691 0.6957 -0.5440 0.6250 0.0625
-0.2146 0.0730 -0.6575 0.4691 0.6957 -0.5440 0.6250 0.0625
0.2828 0.0515 -0.5009 0.0366 0.5663 -0.8234 0.6875 0.2500
0.2828 0.0515 -0.5009 0.0366 0.5663 -0.8234 0.6875 0.2500
0.0758 -0.0087 -0.5002 0.3026 0.6506 -0.6965 0.7500 0.2500
0.0758 -0.0087 -0.5002 0.3026 0.6506 -0.6965 0.7500 0.2500
0.2828 0.0515 -0.5009 0.0366 0.5663 -0.8234 0.6875 0.2500
0.0758 -0.0087 -0.5002 0.3026 0.6506 -0.6965 0.7500 0.2500
-1.0130 0.8838 1.2743 -0.2692 0.7623 0.5885 0.6875 0.5000
-1.0130 0.8838 1.2743 -0.2692 0.7623 0.5885 0.6875 0.5000
-1.6252 0.8949 0.9855 -0.6223 0.5429 0.5639 0.7500 0.5000
-1.0130 0.8838 1.2743 -0.2692 0.7623 0.5885 0.6875 0.5000
-1.6252 0.8949 0.9855 -0.6223 0.5429 0.5639 0.7500 0.5000
-2.0649 0.7141 0.6016 -0.6767 0.6061 0.4181 0.8125 0.5000
-1.6252 0.8949 0.9855 -0.6223 0.5429 0.5639 0.7500 0.5000
-2.0649 0.7141 0.6016 -0.6767 0.6061 0.4181 0.8125 0.5000
-2.3471 0.5234 0.2855 -0.7937 0.6082 -0.0059 0.8750 0.5000
-1.9210 0.5635 -0.0662 -0.3536 0.8480 -0.3948 0.8750 0.4375
-2.0649 0.7141 0.6016 -0.6767 0.6061 0.4181 0.8125 0.5000
-1.9210 0.5635 -0.0662 -0.3536 0.8480 -0.3948 0.8750 0.4375
-1.9210 0.5635 -0.0662 -0.3536 0.8480 -0.3948 0.8750 0.4375
-1.3947 0.6769 -0.4992 -0.2065 0.9571 -0.2030 0.8750 0.3750
-1.3947 0.6769 -0.4992 -0.2065 0.9571 -0.2030 0.8750 0.3750
-1.3947 0.6769 -0.4992 -0.2065 0.9571 -0.2030 0.8750 0.3750
97 6 35
97 28 6
88 99 98
88 19 100
79 4 37
79 23 4
70 3 41
70 34 3
61 2 31
61 20 2
52 0 40
52 14 0
11 16 46
11 1 16
46 15 49
46 16 15
49 14 52
49 15 14
5 44 25
5 13 44
13 45 44
13 12 45
12 46 45
12 11 46
25 47 24
25 44 47
44 48 47
44 45 48
45 49 48
45 46 49
24 50 23
24 47 50
47 51 50
47 48 51
48 52 51
48 49 52
23 38 4
23 50 38
50 39 38
50 51 39
51 40 39
51 52 40
41 22 55
41 3 22
55 21 58
55 22 21
58 20 61
58 21 20
1 53 16
1 43 53
43 54 53
43 42 54
42 55 54
42 41 55
16 56 15
16 53 56
53 57 56
53 54 57
54 58 57
54 55 58
15 59 14
15 56 59
56 60 59
56 57 60
57 61 60
57 58 61
14 29 0
14 59 29
59 30 29
59 60 30
60 31 30
60 61 31
10 32 64
10 7 32
64 33 67
64 32 33
67 34 70
67 33 34
101 62 102
103 8 62
8 63 62
8 9 63
9 64 63
9 10 64
104 65 105
106 62 65
62 66 65
62 63 66
63 67 66
63 64 67
107 68 108
109 65 68
65 69 68
65 66 69
66 70 69
66 67 70
110 43 1
111 68 43
68 42 43
68 69 42
69 41 42
69 70 41
112 25 73
113 5 25
73 24 76
73 25 24
76 23 79
76 24 23
114 71 17
115 116 71
117 72 71
118 119 72
120 73 72
121 122 73
17 74 18
17 71 74
71 75 74
71 72 75
72 76 75
72 73 76
18 77 123
18 74 77
74 78 77
74 75 78
75 79 78
75 76 79
124 126 125
127 77 128
77 36 129
77 78 36
78 37 36
78 79 37
130 131 82
132 134 133
82 135 85
82 137 136
85 19 88
85 138 19
3 80 22
3 139 80
140 81 80
141 142 81
143 82 81
144 145 82
22 83 21
22 80 83
80 84 83
80 81 84
81 85 84
81 82 85
21 86 20
21 83 86
83 87 86
83 84 87
84 88 87
84 85 88
20 26 2
20 86 26
86 27 26
86 87 27
87 146 27
87 88 147
31 148 91
31 2 149
91 150 94
91 152 151
94 28 97
94 153 28
0 89 154
0 29 89
29 90 89
29 30 90
30 91 90
30 31 91
155 92 156
157 89 92
89 93 92
89 90 93
90 94 93
90 91 94
158 95 159
160 92 95
92 96 95
92 93 96
93 97 96
93 94 97
161 163 162
164 95 165
95 167 166
95 96 168
96 35 169
96 97 35
MATERIALS 1
Material.001
MATERIAL Material.001
1.0 1.0 1.0 1.0
1.0 1.0 1.0 1.0
0.0 0.0 0.0 1.0 20.0
0.0 0.0 0.0 1.0
TEXTURES 1
LunarScatter_B.dds
